<!DOCTYPE svg PUBLIC "-//W3C//DTD SVG 1.1//EN" "http://www.w3.org/Graphics/SVG/1.1/DTD/svg11.dtd">
<!-- Uploaded to: SVG Repo, www.svgrepo.com, Transformed by: SVG Repo Mixer Tools -->
<svg width="800px" height="800px" viewBox="0 0 32 32" id="OBJECT" xmlns="http://www.w3.org/2000/svg" fill="#ffffff" stroke="#ffffff">
<g id="SVGRepo_bgCarrier" stroke-width="0"/>
<g id="SVGRepo_tracerCarrier" stroke-linecap="round" stroke-linejoin="round"/>
<g id="SVGRepo_iconCarrier">
<defs>
<style>.cls-1{fill:#dedede;}</style>
</defs>
<title/>
<path class="cls-1" d="M16,29.5A13.5,13.5,0,1,1,29.5,16,13.52,13.52,0,0,1,16,29.5Zm0-25A11.5,11.5,0,1,0,27.5,16,11.51,11.51,0,0,0,16,4.5Z"/>
<path class="cls-1" d="M23.79,18.6a8.5,8.5,0,0,0-15.58,0,1,1,0,0,0,0,.8,8.5,8.5,0,0,0,15.58,0A1,1,0,0,0,23.79,18.6Z"/>
<circle cx="16" cy="11.5" r="4"/>
<path d="M16,6a1,1,0,0,1-1-1V2a1,1,0,0,1,2,0V5A1,1,0,0,1,16,6Z"/>
<path d="M16,31a1,1,0,0,1-1-1V27a1,1,0,0,1,2,0v3A1,1,0,0,1,16,31Z"/>
<path d="M30,17H27a1,1,0,0,1,0-2h3a1,1,0,0,1,0,2Z"/>
<path d="M5,17H2a1,1,0,0,1,0-2H5a1,1,0,0,1,0,2Z"/>
</g>
</svg>