<!DOCTYPE svg PUBLIC "-//W3C//DTD SVG 1.1//EN" "http://www.w3.org/Graphics/SVG/1.1/DTD/svg11.dtd">
<!-- Uploaded to: SVG Repo, www.svgrepo.com, Transformed by: SVG Repo Mixer Tools -->
<svg fill="#ffffff" height="800px" width="800px" version="1.1" id="_x31_" xmlns="http://www.w3.org/2000/svg" xmlns:xlink="http://www.w3.org/1999/xlink" viewBox="0 0 128 128" xml:space="preserve" transform="matrix(-1, 0, 0, 1, 0, 0)" stroke="#ffffff">
<g id="SVGRepo_bgCarrier" stroke-width="0"/>
<g id="SVGRepo_tracerCarrier" stroke-linecap="round" stroke-linejoin="round"/>
<g id="SVGRepo_iconCarrier"> <ellipse id="_x32_" transform="matrix(0.9063 -0.4226 0.4226 0.9063 -14.1315 39.0974)" cx="81.1" cy="51.4" rx="5.9" ry="5.9"/> <path id="_x31__1_" d="M65.6,70.8H76l2.7-7.3c0.9-2.3,2.7-4.3,5.3-5.2l1-0.5c2.3-1.1,4.9-1,7-0.1l9.9,3.6c0.7,0.2,1.3,0.7,1.6,1.4 l5.2,11c0.6,1.3,0.1,2.8-1.3,3.5c-1.3,0.6-2.8,0.1-3.5-1.3l-4.7-10.1l-5.8-2.1l13.5,28.9h12.5c2.1,0,3.7,1.6,3.7,3.7 s-1.6,3.7-3.7,3.7h-14.8c-1.5,0-2.7-0.9-3.3-2.2l-4.7-10.1l-9.3,25.4c-0.7,1.9-2.8,2.9-4.7,2.2c-1.9-0.7-2.9-2.8-2.2-4.7l9.6-26.5 l-7.4-15.9l-2.2,6c-0.4,1-1.3,1.7-2.4,1.7H65.6c-1.4,0-2.6-1.2-2.6-2.6C63,72,64.2,70.8,65.6,70.8z"/> <ellipse id="_x32__1_" transform="matrix(0.8192 -0.5736 0.5736 0.8192 -27.6599 24.4463)" cx="24.9" cy="56.1" rx="6.2" ry="6.2"/> <path id="_x31__2_" d="M6.5,62.9c1.2-0.9,3-0.5,3.8,0.7l5.8,8.3l10-7l4-2.9c1.6-1.2,3.5-1.7,5.4-1.7h12.6c0.9-0.1,1.9,0.3,2.4,1.2 l7.3,10.4c0.9,1.2,0.5,3-0.7,3.8s-3,0.5-3.8-0.7l-6.5-9.3h-7.6l19.6,28l12.3-3.3c2.1-0.5,4.2,0.7,4.7,2.7c0.5,2.1-0.7,4.2-2.7,4.7 l-15,4c-0.9,0.2-2,0.2-3-0.4c-0.7-0.4-1.2-1.2-1.6-1.7c-0.4-0.5-6.8-9.7-6.8-9.7l-12.1,8.6l-2.4,13.8c-0.4,2.1-2.4,3.5-4.5,3.2 c-2.1-0.4-3.5-2.4-3.2-4.5l2.7-15.3c0.2-1,0.8-1.9,1.6-2.5l9.6-6.7L27.4,70.5l-10.5,7.3c-1.2,0.9-3,0.5-3.8-0.7L5.8,66.6 C4.9,65.4,5.2,63.7,6.5,62.9z"/> </g>
</svg>