<?xml version="1.0" encoding="iso-8859-1"?>
<!-- Uploaded to: SVG Repo, www.svgrepo.com, Generator: SVG Repo Mixer Tools -->
<svg height="800px" width="800px" version="1.1" id="Layer_1" xmlns="http://www.w3.org/2000/svg" xmlns:xlink="http://www.w3.org/1999/xlink" 
	 viewBox="0 0 512 512" xml:space="preserve">
<circle style="fill:#90DFAA;" cx="256" cy="256" r="256"/>
<path style="fill:#2C9984;" d="M503.434,321.85L389.317,207.731l-192.215,65.221l-81.367,24.804l206.117,205.679
	C410.309,479.953,479.953,410.307,503.434,321.85z"/>
<path style="fill:#FFFFFF;" d="M256,156.444c-73.699,0-138.04,40.043-172.466,99.556c34.428,59.513,98.769,99.556,172.466,99.556
	S394.04,315.513,428.466,256C394.04,196.487,329.699,156.444,256,156.444z"/>
<path style="fill:#F4E3C3;" d="M428.466,256c-34.428-59.513-98.769-99.556-172.466-99.556v199.111
	C329.699,355.556,394.04,315.513,428.466,256z"/>
<circle style="fill:#31BAFD;" cx="256" cy="256" r="85.333"/>
<path style="fill:#2B9ED8;" d="M341.333,256c0-47.128-38.205-85.333-85.333-85.333v170.667
	C303.128,341.333,341.333,303.128,341.333,256z"/>
<circle style="fill:#324A5E;" cx="256" cy="256" r="58.613"/>
<path style="fill:#2B3B4E;" d="M314.613,256c0-32.372-26.241-58.613-58.613-58.613v117.226
	C288.371,314.613,314.613,288.371,314.613,256z"/>
</svg>